# This file uses centimeters as units for non-parametric coordinates.

mtllib Stand.mtl
g default
v -0.500000 -5.751937 0.500000
v 0.500000 -5.751937 0.500000
v -0.500000 -5.751937 -0.500000
v 0.500000 -5.751937 -0.500000
v -0.500000 -5.009631 0.500000
v 0.500000 -5.009631 0.500000
v 0.500000 -5.009629 -0.500000
v -0.500000 -5.009629 -0.500000
v -0.500000 -5.751937 4.356805
v 0.500000 -5.751937 4.356805
v 0.500000 -5.009631 4.356805
v -0.500000 -5.009631 4.356805
v -0.500000 -5.751937 3.337386
v 0.500000 -5.751937 3.337386
v 0.500000 -5.009631 3.337386
v -0.500000 -5.009631 3.337386
v -0.500000 -5.751937 2.320810
v 0.500000 -5.751937 2.320810
v 0.500000 -5.009631 2.320810
v -0.500000 -5.009631 2.320810
v 0.500000 -3.790475 0.500000
v -0.500000 -3.790475 0.500000
v 0.500000 -3.790473 -0.500000
v -0.500000 -3.790473 -0.500000
v -0.436375 7.701292 0.500000
v -0.500000 7.637666 0.500000
v -0.500000 7.637666 -0.436375
v -0.436375 7.701292 -0.500000
v 0.500000 7.637666 0.500000
v 0.436375 7.701292 0.500000
v 0.436375 7.701292 -0.500000
v 0.500000 7.637666 -0.436375
v -0.436375 6.834488 -0.500000
v -0.500000 6.834488 -0.436375
v 0.500000 6.834488 -0.436375
v 0.436375 6.834488 -0.500000
v 0.436375 -2.956248 -0.500000
v 0.500000 -2.956248 -0.436375
v 0.500000 -3.001237 -0.500000
v -0.436375 -2.956248 -0.500000
v -0.500000 -3.001237 -0.500000
v -0.500000 -2.956248 -0.436375
v -0.436375 6.834487 0.500000
v -0.500000 6.898112 0.436375
v -0.481752 6.793567 6.578151
v -0.500000 6.890230 6.498281
v -0.438196 6.834487 6.498281
v 0.500000 6.898112 0.436375
v 0.436375 6.834487 0.500000
v 0.438196 6.834487 6.498281
v 0.500000 6.891161 6.498281
v 0.481752 6.793567 6.578151
v 0.500000 7.637666 6.498281
v 0.436375 7.701292 6.498281
v -0.436375 7.701292 6.498281
v -0.500000 7.637666 6.498281
v -0.415667 6.791325 7.360684
v -0.436741 6.880010 7.377609
v -0.500000 6.879927 7.314755
v -0.481045 6.791981 7.297140
v 0.481045 6.791981 7.297140
v 0.500000 6.880187 7.314394
v 0.437157 6.879711 7.377609
v 0.415667 6.791325 7.360684
v 0.436375 7.637666 7.377609
v 0.500000 7.637666 7.313984
v 0.436375 7.701292 7.313984
v -0.436375 7.637666 7.377609
v -0.436375 7.701292 7.313984
v -0.500000 7.637666 7.313984
v -0.071717 5.874091 6.937945
v -0.007440 5.874091 6.874882
v 0.071717 5.874091 6.937945
v 0.007440 5.874091 6.874882
v 0.007440 5.874091 7.001008
v -0.007440 5.874091 7.001008
v 0.500000 -2.956249 0.436375
v 0.436375 -2.956250 0.500000
v 0.500000 -3.001996 0.563213
v 0.500000 -3.034280 0.500000
v -0.500000 -2.956249 0.436375
v -0.500000 -3.034280 0.500000
v -0.500000 -3.001996 0.563213
v -0.436375 -2.956250 0.500000
vt 0.375000 0.000000
vt 0.625000 0.000000
vt 0.375000 0.750000
vt 0.625000 0.750000
vt 0.375000 1.000000
vt 0.625000 1.000000
vt 0.875000 0.000000
vt 0.125000 0.000000
vt 0.375000 0.016132
vt 0.625000 0.016132
vt 0.625000 0.733868
vt 0.875000 0.016132
vt 0.125000 0.016132
vt 0.375000 0.733868
vt 0.375000 0.000000
vt 0.625000 0.000000
vt 0.625000 0.016132
vt 0.375000 0.016132
vt 0.375000 0.000000
vt 0.625000 0.000000
vt 0.375000 0.000000
vt 0.625000 0.000000
vt 0.375000 0.016132
vt 0.375008 0.016132
vt 0.374999 0.042615
vt 0.625000 0.707374
vt 0.125000 0.042626
vt 0.609094 0.689245
vt 0.625000 0.690222
vt 0.375000 0.707374
vt 0.625001 0.042614
vt 0.875000 0.042626
vt 0.875000 0.059778
vt 0.625001 0.059062
vt 0.625000 0.016132
vt 0.624993 0.016132
vt 0.624992 0.016132
vt 0.125000 0.059778
vt 0.375000 0.016132
vt 0.375009 0.016132
vt 0.375009 0.016132
vt 0.625000 0.016132
vt 0.624993 0.016132
vt 0.609087 0.016132
vt 0.390914 0.016132
vt 0.375000 0.250000
vt 0.375000 0.484094
vt 0.375000 0.501383
vt 0.375000 0.518837
vt 0.625000 0.484094
vt 0.625000 0.501383
vt 0.625000 0.518837
vt 0.125000 0.231163
vt 0.125000 0.060755
vt 0.140906 0.060756
vt 0.875000 0.231163
vt 0.859094 0.060756
vt 0.875000 0.060755
vt 0.359093 0.060760
vt 0.390906 0.060760
vt 0.375000 0.231163
vt 0.375000 0.231163
vt 0.609094 0.060760
vt 0.640907 0.060759
vt 0.512967 0.231163
vt 0.375000 0.231163
vt 0.487033 0.231163
vt 0.400895 0.231163
vt 0.390815 0.232152
vt 0.375000 0.248617
vt 0.608729 0.231163
vt 0.625000 0.231163
vt 0.625000 0.232156
vt 0.625000 0.248617
vt 0.609094 0.250000
vt 0.390906 0.250000
vt 0.390906 0.248617
vt 0.609289 0.232146
vt 0.609094 0.248617
vt 0.390906 0.250000
vt 0.609094 0.500000
vt 0.390906 0.500000
vt 0.609094 0.518837
vt 0.859094 0.248617
vt 0.625000 0.248616
vt 0.140906 0.231163
vt 0.359094 0.232545
vt 0.140906 0.248617
vt 0.390906 0.231163
vt 0.609549 0.231163
vt 0.640906 0.232545
vt 0.625000 0.248617
vt 0.609094 0.250000
vt 0.390906 0.250000
vt 0.375000 0.248616
vt 0.375000 0.232374
vt 0.625000 0.232394
vt 0.609094 0.250000
vt 0.375000 0.248617
vt 0.375000 0.232150
vt 0.390451 0.231163
vt 0.487033 0.231163
vt 0.625000 0.231163
vt 0.625000 0.231163
vt 0.512967 0.231163
vt 0.859094 0.231163
vt 0.609094 0.231163
vt 0.390906 0.518837
vt 0.390906 0.689245
vt 0.375000 0.690222
vt 0.375000 0.689245
vt 0.625001 0.058745
vt 0.374999 0.059063
vt 0.374999 0.059824
vn 0.000000 -1.000000 0.000000
vn 0.000000 -1.000000 0.000000
vn 0.000000 -1.000000 0.000000
vn 0.000000 -1.000000 0.000000
vn 1.000000 0.000000 0.000000
vn 1.000000 0.000000 0.000000
vn 1.000000 0.000000 0.000000
vn 1.000000 0.000000 0.000000
vn 1.000000 0.000000 0.000000
vn 1.000000 0.000000 0.000000
vn -1.000000 0.000000 0.000000
vn -1.000000 0.000000 0.000000
vn -1.000000 0.000000 0.000000
vn -1.000000 0.000000 0.000000
vn -1.000000 0.000000 0.000000
vn -1.000000 0.000000 0.000000
vn 0.000000 0.000000 1.000000
vn 0.000000 0.000000 1.000000
vn 0.000000 0.000000 1.000000
vn 0.000000 0.000000 1.000000
vn 1.000000 0.000000 0.000000
vn 1.000000 0.000000 0.000000
vn 1.000000 0.000000 0.000000
vn 1.000000 0.000000 0.000000
vn 0.000000 0.000000 -1.000000
vn 0.000000 0.000000 -1.000000
vn 0.000000 0.000000 -1.000000
vn 0.000000 0.000000 -1.000000
vn -1.000000 0.000000 0.000000
vn -1.000000 0.000000 0.000000
vn -1.000000 0.000000 0.000000
vn -1.000000 0.000000 0.000000
vn 0.000000 -1.000000 0.000000
vn 0.000000 -1.000000 0.000000
vn 0.000000 -1.000000 0.000000
vn 0.000000 -1.000000 0.000000
vn 1.000000 0.000000 0.000000
vn 1.000000 0.000000 0.000000
vn 1.000000 0.000000 0.000000
vn 1.000000 0.000000 0.000000
vn 0.000000 1.000000 0.000000
vn 0.000000 1.000000 0.000000
vn 0.000000 1.000000 0.000000
vn 0.000000 1.000000 0.000000
vn -1.000000 0.000000 0.000000
vn -1.000000 0.000000 0.000000
vn -1.000000 0.000000 0.000000
vn -1.000000 0.000000 0.000000
vn 0.000000 -1.000000 0.000000
vn 0.000000 -1.000000 0.000000
vn 1.000000 0.000000 0.000000
vn 1.000000 0.000000 0.000000
vn -1.000000 0.000000 0.000000
vn -1.000000 0.000000 0.000000
vn 0.000000 -1.000000 0.000000
vn 0.000000 -1.000000 0.000000
vn 1.000000 0.000000 0.000000
vn 1.000000 0.000000 0.000000
vn 0.000000 1.000000 0.000000
vn 0.000000 1.000000 0.000000
vn 0.000000 1.000000 0.000000
vn 0.000000 1.000000 0.000000
vn -1.000000 0.000000 0.000000
vn -1.000000 0.000000 0.000000
vn 0.000000 -0.830936 -0.556368
vn 0.000000 -0.830936 -0.556368
vn 0.000000 -0.830936 -0.556368
vn 0.000000 -0.830936 -0.556368
vn -1.000000 0.000000 0.000000
vn -1.000000 0.000000 0.000000
vn -1.000000 0.000000 0.000000
vn -1.000000 0.000000 0.000000
vn -1.000000 0.000000 0.000000
vn 0.000000 0.810115 0.586271
vn 0.000000 0.810115 0.586271
vn 0.000000 0.810115 0.586271
vn 0.000000 0.810115 0.586271
vn 0.000000 0.810115 0.586271
vn 0.000000 0.810115 0.586271
vn 1.000000 0.000000 0.000000
vn 1.000000 0.000000 0.000000
vn 1.000000 0.000000 0.000000
vn 1.000000 0.000000 0.000000
vn 1.000000 0.000000 0.000000
vn 0.000000 0.000000 1.000000
vn 0.000000 0.000000 1.000000
vn 0.000000 0.000000 1.000000
vn 0.000000 0.000000 1.000000
vn 0.000000 0.000000 -1.000000
vn 0.000000 0.000000 -1.000000
vn 0.000000 0.000000 -1.000000
vn 0.000000 0.000000 -1.000000
vn 0.000000 0.000000 -1.000000
vn 0.000000 0.000000 -1.000000
vn 0.000000 -1.000000 0.000004
vn 0.000000 -1.000000 0.000004
vn 0.000000 -1.000000 0.000004
vn 0.000000 -1.000000 0.000004
vn 0.000000 -1.000000 0.000004
vn 0.000000 -1.000000 0.000004
vn -0.707108 0.707105 0.000000
vn -0.707108 0.707105 0.000000
vn -0.707108 0.707105 0.000000
vn -0.707108 0.707105 0.000000
vn -0.707109 0.707105 0.000000
vn -0.707109 0.707105 0.000000
vn -0.707107 0.000000 -0.707107
vn -0.707107 0.000000 -0.707107
vn -0.707107 0.000000 -0.707107
vn -0.707107 0.000000 -0.707107
vn 0.707108 0.707105 0.000000
vn 0.707108 0.707105 0.000000
vn 0.707108 0.707105 0.000000
vn 0.707108 0.707105 0.000000
vn 0.707109 0.707105 0.000000
vn 0.707109 0.707105 0.000000
vn 0.707107 0.000000 -0.707107
vn 0.707107 0.000000 -0.707107
vn 0.707107 0.000000 -0.707107
vn 0.707107 0.000000 -0.707107
vn -0.707107 0.000000 -0.707107
vn -0.707107 0.000000 -0.707107
vn 0.707107 0.000000 -0.707107
vn 0.707107 0.000000 -0.707107
vn -0.707107 0.000000 0.707107
vn -0.707107 0.000000 0.707107
vn -0.707107 0.000000 0.707107
vn -0.707107 0.000000 0.707107
vn -0.689233 -0.724539 -0.000578
vn -0.689233 -0.724539 -0.000578
vn -0.689233 -0.724539 -0.000578
vn -0.689233 -0.724539 -0.000578
vn -0.608794 -0.511779 -0.606178
vn -0.607688 -0.513182 -0.606101
vn -0.609960 -0.510295 -0.606257
vn -0.609960 -0.510295 -0.606257
vn -1.000000 -0.000437 -0.000002
vn -0.945718 -0.324989 -0.000437
vn -0.941599 -0.336737 -0.000376
vn -0.999927 -0.012057 -0.000066
vn 0.707107 0.000000 0.707107
vn 0.707107 0.000000 0.707107
vn 0.707107 0.000000 0.707107
vn 0.707107 0.000000 0.707107
vn 0.692056 -0.721844 -0.000521
vn 0.692056 -0.721844 -0.000521
vn 0.692056 -0.721844 -0.000521
vn 0.692056 -0.721844 -0.000521
vn 0.607814 -0.513041 -0.606094
vn 0.608859 -0.511706 -0.606175
vn 0.609960 -0.510295 -0.606257
vn 0.609960 -0.510295 -0.606257
vn 0.945974 -0.324241 -0.000470
vn 1.000000 -0.000438 -0.000003
vn 0.999926 -0.012159 -0.000072
vn 0.941760 -0.336284 -0.000403
vn 0.707109 0.707105 0.000000
vn 0.707109 0.707105 0.000000
vn -0.707109 0.707105 0.000000
vn -0.707109 0.707105 0.000000
vn -0.608714 -0.494399 0.620513
vn -0.609983 -0.491248 0.621768
vn -0.602618 -0.509179 0.614482
vn -0.602618 -0.509179 0.614482
vn -0.000002 -0.009568 0.999954
vn -0.000013 -0.299275 0.954167
vn -0.000013 -0.299104 0.954220
vn -0.000002 -0.009480 0.999955
vn -0.705205 -0.030012 0.708368
vn -0.705107 -0.032669 0.708348
vn -0.705974 0.000531 0.708238
vn -0.705974 0.000531 0.708238
vn 0.610244 -0.491180 0.621566
vn 0.608858 -0.494514 0.620280
vn 0.602618 -0.509179 0.614482
vn 0.602618 -0.509179 0.614482
vn 0.707348 -0.032666 0.706111
vn 0.707440 -0.030000 0.706136
vn 0.708143 0.000556 0.706068
vn 0.708143 0.000556 0.706069
vn 0.000000 0.707101 0.707112
vn 0.000000 0.707101 0.707112
vn 0.000000 0.707101 0.707112
vn 0.000000 0.707101 0.707112
vn -0.000001 0.000000 1.000000
vn -0.000001 0.000000 1.000000
vn 0.000000 1.000000 0.000000
vn 0.000000 1.000000 0.000000
vn 0.000000 1.000000 0.000000
vn 0.000000 1.000000 0.000000
vn 0.000000 0.000000 -1.000000
vn 0.000000 0.000000 -1.000000
vn 0.000000 0.000000 -1.000000
vn 0.000000 0.000000 -1.000000
vn 1.000000 0.000000 0.000000
vn 1.000000 0.000000 0.000000
vn 1.000000 0.000000 0.000000
vn 1.000000 0.000000 0.000000
vn -1.000000 0.000000 0.000000
vn -1.000000 0.000000 0.000000
vn -1.000000 0.000000 0.000000
vn -1.000000 0.000000 0.000000
vn 0.000000 -1.000000 0.000000
vn 0.000000 -1.000000 0.000000
vn 0.000000 -1.000000 0.000000
vn 0.000000 -1.000000 0.000000
vn 1.000000 0.000000 0.000000
vn 0.000000 1.000000 0.000000
vn 0.000000 1.000000 0.000000
vn -1.000000 0.000000 0.000000
vn 1.000000 0.000000 0.000000
vn 0.000000 1.000000 0.000000
vn 0.000000 1.000000 0.000000
vn -1.000000 0.000000 0.000000
vn 0.000000 -0.365067 -0.930981
vn 0.000000 -0.365067 -0.930981
vn 0.000000 -0.365067 -0.930981
vn 0.000000 -0.365067 -0.930981
vn 0.913303 -0.407282 -0.000000
vn 0.000000 -0.365067 0.930981
vn 0.000000 -0.365067 0.930981
vn -0.913303 -0.407282 -0.000000
vn 0.000000 0.000000 1.000000
vn 0.000000 0.000000 1.000000
vn 0.000000 0.000000 1.000000
vn 0.000000 0.000000 1.000000
vn 0.500001 0.707106 -0.500000
vn 0.500001 0.707106 -0.500000
vn 0.500001 0.707106 -0.500000
vn -0.500001 0.707106 -0.500000
vn -0.500001 0.707106 -0.500000
vn -0.500001 0.707106 -0.500000
vn -0.536913 -0.595292 -0.597788
vn 0.541674 -0.590711 -0.598039
vn 0.577345 0.577348 0.577357
vn 0.577345 0.577348 0.577357
vn 0.577345 0.577348 0.577357
vn -0.577345 0.577348 0.577357
vn -0.577345 0.577348 0.577357
vn -0.577345 0.577348 0.577357
vn 0.755637 0.616141 0.222224
vn 0.755637 0.616141 0.222224
vn 0.755637 0.616141 0.222224
vn 0.755637 0.616141 0.222224
vn -0.755637 0.616141 0.222224
vn -0.755637 0.616141 0.222224
vn -0.755637 0.616141 0.222224
vn -0.755637 0.616141 0.222224
s off
g pCube1
usemtl initialShadingGroup
f 3/3/1 4/4/2 2/6/3 1/5/4
s 1
f 21/31/5 23/32/6 39/33/7 38/57/8 77/64/9 80/34/10
s 2
f 24/27/11 22/25/12 82/113/13 81/59/14 42/55/15 41/38/16
s off
f 9/15/17 10/16/18 11/17/19 12/18/20
s 1
f 2/2/21 4/7/22 7/12/23 6/10/24
s 3
f 8/14/25 7/11/26 4/4/27 3/3/28
s 2
f 3/8/29 1/1/30 5/9/31 8/13/32
s 4
f 13/19/33 14/20/34 10/16/35 9/15/36
s 5
f 14/20/37 15/42/38 11/17/39 10/16/40
s off
f 15/42/41 16/39/42 12/18/43 11/17/44
s 6
f 16/39/45 13/19/46 9/15/47 12/18/48
s 4
f 17/21/49 18/22/50 14/20/34 13/19/33
s 5
f 18/22/51 19/35/52 15/42/38 14/20/37
s 6
f 20/23/53 17/21/54 13/19/46 16/39/45
s 4
f 1/1/55 2/2/56 18/22/50 17/21/49
s 5
f 2/2/57 6/10/58 19/35/52 18/22/51
s off
f 6/10/59 5/9/60 20/23/61 19/35/62
s 6
f 5/9/63 1/1/64 17/21/54 20/23/53
s off
f 19/35/65 20/23/66 22/24/67 21/36/68
f 20/23/69 16/39/70 83/40/71 82/41/72 22/24/73
f 16/39/74 15/42/75 79/43/76 78/44/77 84/45/78 83/40/79
f 15/42/80 19/35/81 21/36/82 80/37/83 79/43/84
f 5/9/85 6/10/86 21/31/87 22/25/88
s 1
f 6/10/24 7/12/23 23/32/6 21/31/5
s 3
f 24/30/89 23/26/90 7/11/26 8/14/25
s 2
f 8/13/32 5/9/31 22/25/12 24/27/11
s 3
f 41/110/91 40/109/92 37/28/93 39/29/94 23/26/90 24/30/89
s off
f 71/61/95 72/102/96 74/65/97 73/72/98 75/105/99 76/67/100
s 7
f 25/80/101 26/95/102 56/99/103 55/94/104
f 26/46/102 25/80/101 28/82/105 27/47/106
s 8
f 27/48/107 28/82/108 33/108/109 34/49/110
s 9
f 29/85/111 30/93/112 54/98/113 53/92/114
f 30/93/112 29/85/111 32/50/115 31/81/116
s 10
f 31/81/117 32/51/118 35/52/119 36/83/120
s 8
f 34/86/110 33/53/109 40/54/121 42/55/122
s 10
f 36/56/120 35/106/119 38/57/123 37/58/124
s off
f 43/89/125 44/87/126 81/59/127 84/60/128
f 44/87/129 43/89/130 47/101/131 46/96/132
s 11
f 45/62/133 47/101/134 72/102/135 71/61/136
s 2
f 46/96/137 45/62/138 60/66/139 59/100/140
s off
f 48/91/141 49/107/142 78/63/143 77/64/144
f 49/107/145 48/91/146 51/97/147 50/90/148
s 13
f 50/90/149 52/103/150 73/72/151 74/65/152
s 1
f 52/103/153 51/97/154 62/73/155 61/104/156
s 9
f 53/92/114 54/98/113 67/75/157 66/74/158
s 7
f 55/94/104 56/99/103 70/70/159 69/76/160
s 15
f 57/68/161 60/66/162 71/61/163 76/67/164
s 16
f 58/69/165 57/68/166 64/71/167 63/78/168
s 15
f 59/100/169 58/69/170 68/77/171 70/70/172
s 17
f 61/104/173 64/71/174 75/105/175 73/72/176
f 63/78/177 62/73/178 66/74/179 65/79/180
s off
f 65/79/181 67/75/182 69/76/183 68/77/184
s 16
f 58/69/165 63/78/168 65/79/185 68/77/186
s 18
f 25/80/187 30/93/188 31/81/189 28/82/190
s 3
f 28/82/191 31/81/192 36/83/193 33/108/194
s 1
f 48/91/195 35/106/196 32/84/197 29/85/198
s 2
f 34/86/199 44/87/200 26/95/201 27/88/202
s off
f 43/89/203 49/107/204 50/90/205 47/101/206
s 1
f 48/91/195 29/85/198 53/92/207 51/97/154
s 18
f 30/93/188 25/80/187 55/94/208 54/98/209
s 2
f 26/95/201 44/87/200 46/96/137 56/99/210
s 1
f 51/97/154 53/92/207 66/74/211 62/73/155
s 18
f 54/98/209 55/94/208 69/76/212 67/75/213
s 2
f 56/99/210 46/96/137 59/100/140 70/70/214
s off
f 47/101/215 50/90/216 74/65/217 72/102/218
s 1
f 52/103/153 61/104/156 73/72/219
s 16
f 64/71/167 57/68/166 76/67/220 75/105/221
s 2
f 60/66/139 45/62/138 71/61/222
s 1
f 48/91/195 77/64/9 38/57/8 35/106/196
s off
f 43/89/223 84/60/224 78/63/225 49/107/226
s 2
f 34/86/199 42/55/15 81/59/14 44/87/200
s 3
f 33/108/194 36/83/193 37/28/93 40/109/92
s off
f 37/58/227 38/57/228 39/33/229
f 40/109/230 41/110/231 42/111/232
s 11
f 45/62/133 46/96/233 47/101/134
s 13
f 50/90/149 51/97/234 52/103/150
s 15
f 57/68/161 58/69/170 59/100/169 60/66/162
s 17
f 61/104/173 62/73/178 63/78/177 64/71/174
s off
f 65/79/235 66/74/236 67/75/237
f 68/77/238 69/76/239 70/70/240
f 77/64/241 78/63/242 79/112/243 80/34/244
f 81/59/245 82/113/246 83/114/247 84/60/248
